# xmcd
#
# Track frame offsets:
# 150
# 10352
# 26733
# 38004
# 48853
#
# Disc length: 812 seconds
#
#
# Revision: 0
# Processed by: cddbd v1.4PL0 Copyright (c) Steve Scherf et al.
# Submitted via: FreeRIP 2.20 
#
DISCID=33032a05
DTITLE=Something Spooked The Horses - Workin Close
DYEAR=2003
DGENRE=Bluegrass
TTITLE0=Haul Off
TTITLE1=Something Spooked The Horses
TTITLE2=Kiss Me Quick
TTITLE3=Last Tear
TTITLE4=Diamonds
EXTD=
EXTT0=
EXTT1=
EXTT2=
EXTT3=
EXTT4=
PLAYORDER=
